<svg xmlns="http://www.w3.org/2000/svg" width="960" height="1010" viewBox="0 0 960 1010"><rect width="100%" height="100%" fill="#FBF6EB"/><text id="n414-line-1" x="40" y="40.0" text-anchor="start" dominant-baseline="central" font-family="Noto Sans SC" font-size="26" font-weight="400" fill="#303D35">Use voice → 准备录制（尚未采集声音）</text><text id="n415-line-1" x="40" y="82.5" text-anchor="start" dominant-baseline="central" font-family="Noto Sans SC" font-size="15" font-weight="400" fill="#303D35">P02-A · 输入区域切换为录音准备</text><g id="n416"><rect id="n416-outline" x="40" y="108" width="390" height="844" rx="28" fill="white" stroke="#DCE1D8" stroke-width="1"/><text id="n417-line-1" x="64" y="130.5" text-anchor="start" dominant-baseline="central" font-family="Noto Sans SC" font-size="12" font-weight="400" fill="#303D35">9:41</text><text id="n418-line-1" x="92" y="183.5" text-anchor="start" dominant-baseline="central" font-family="Georgia" font-size="25" font-weight="400" fill="#303D35">Reflection</text><rect id="n419-outline" x="180" y="931" width="110" height="4" rx="2" fill="#303D35" stroke="none" stroke-width="0"/><path id="n420" d="M 73 176 L 67 183 L 73 190" fill="none" stroke="#657065" stroke-width="1.8" stroke-linejoin="round"/><text id="n421-line-1" x="64" y="267.0" text-anchor="start" dominant-baseline="central" font-family="Georgia" font-size="27" font-weight="400" fill="#303D35">What would you love</text><text id="n421-line-2" x="64" y="305.0" text-anchor="start" dominant-baseline="central" font-family="Georgia" font-size="27" font-weight="400" fill="#303D35">someone to ask you today?</text><rect id="n422-outline" x="172" y="459" width="126" height="126" rx="63" fill="#F3F5EF" stroke="none" stroke-width="0"/><rect id="n423-outline" x="230" y="492" width="10" height="19" rx="5" fill="none" stroke="#303D35" stroke-width="1"/><path id="n424" d="M 225 502 L 225 510 L 230 516 L 240 516 L 245 510 L 245 502" fill="none" stroke="#303D35" stroke-width="1.5" stroke-linejoin="round"/><path id="n425" d="M 235 516 L 235 523" fill="none" stroke="#303D35" stroke-width="1.5" stroke-linejoin="round"/><rect id="n426-outline" x="104" y="625" width="262" height="46" rx="23" fill="#DDE6D6" stroke="none" stroke-width="0"/><text id="n427-line-1" x="235.0" y="647.5" text-anchor="middle" dominant-baseline="central" font-family="Noto Sans SC" font-size="15" font-weight="400" fill="#303D35">Start recording</text><rect id="n428-outline" x="104" y="687" width="262" height="46" rx="23" fill="white" stroke="#DCE1D8" stroke-width="1"/><text id="n429-line-1" x="235.0" y="709.5" text-anchor="middle" dominant-baseline="central" font-family="Noto Sans SC" font-size="15" font-weight="400" fill="#303D35">Write instead</text><rect id="n430-outline" x="378" y="170" width="22" height="24" rx="3" fill="none" stroke="#657065" stroke-width="1"/><path id="n431" d="M 383 177 L 395 177" fill="none" stroke="#657065" stroke-width="1.4" stroke-linejoin="round"/><path id="n432" d="M 383 183 L 395 183" fill="none" stroke="#657065" stroke-width="1.4" stroke-linejoin="round"/></g><text id="n433-line-1" x="530" y="82.5" text-anchor="start" dominant-baseline="central" font-family="Noto Sans SC" font-size="15" font-weight="400" fill="#303D35">P02-B · 暂停录音</text><g id="n434"><rect id="n434-outline" x="530" y="108" width="390" height="844" rx="28" fill="white" stroke="#DCE1D8" stroke-width="1"/><text id="n435-line-1" x="554" y="130.5" text-anchor="start" dominant-baseline="central" font-family="Noto Sans SC" font-size="12" font-weight="400" fill="#303D35">9:41</text><text id="n436-line-1" x="582" y="183.5" text-anchor="start" dominant-baseline="central" font-family="Georgia" font-size="25" font-weight="400" fill="#303D35">Reflection</text><rect id="n437-outline" x="670" y="931" width="110" height="4" rx="2" fill="#303D35" stroke="none" stroke-width="0"/><path id="n438" d="M 563 176 L 557 183 L 563 190" fill="none" stroke="#657065" stroke-width="1.8" stroke-linejoin="round"/><text id="n439-line-1" x="554" y="267.0" text-anchor="start" dominant-baseline="central" font-family="Georgia" font-size="27" font-weight="400" fill="#303D35">What would you love</text><text id="n439-line-2" x="554" y="305.0" text-anchor="start" dominant-baseline="central" font-family="Georgia" font-size="27" font-weight="400" fill="#303D35">someone to ask you today?</text><text id="n440-line-1" x="725.0" y="576.0" text-anchor="middle" dominant-baseline="central" font-family="Noto Sans SC" font-size="16" font-weight="400" fill="#303D35">Paused · 00:24</text><rect id="n441-outline" x="626" y="505" width="3" height="12" rx="2" fill="#A7B39F" stroke="none" stroke-width="0"/><rect id="n442-outline" x="634" y="505" width="3" height="12" rx="2" fill="#A7B39F" stroke="none" stroke-width="0"/><rect id="n443-outline" x="642" y="505" width="3" height="12" rx="2" fill="#A7B39F" stroke="none" stroke-width="0"/><rect id="n444-outline" x="650" y="505" width="3" height="12" rx="2" fill="#A7B39F" stroke="none" stroke-width="0"/><rect id="n445-outline" x="658" y="505" width="3" height="12" rx="2" fill="#A7B39F" stroke="none" stroke-width="0"/><rect id="n446-outline" x="666" y="505" width="3" height="12" rx="2" fill="#A7B39F" stroke="none" stroke-width="0"/><rect id="n447-outline" x="674" y="505" width="3" height="12" rx="2" fill="#A7B39F" stroke="none" stroke-width="0"/><rect id="n448-outline" x="682" y="505" width="3" height="12" rx="2" fill="#A7B39F" stroke="none" stroke-width="0"/><rect id="n449-outline" x="690" y="505" width="3" height="12" rx="2" fill="#A7B39F" stroke="none" stroke-width="0"/><rect id="n450-outline" x="698" y="505" width="3" height="12" rx="2" fill="#A7B39F" stroke="none" stroke-width="0"/><rect id="n451-outline" x="706" y="505" width="3" height="12" rx="2" fill="#A7B39F" stroke="none" stroke-width="0"/><rect id="n452-outline" x="714" y="505" width="3" height="12" rx="2" fill="#A7B39F" stroke="none" stroke-width="0"/><rect id="n453-outline" x="722" y="505" width="3" height="12" rx="2" fill="#A7B39F" stroke="none" stroke-width="0"/><rect id="n454-outline" x="730" y="505" width="3" height="12" rx="2" fill="#A7B39F" stroke="none" stroke-width="0"/><rect id="n455-outline" x="738" y="505" width="3" height="12" rx="2" fill="#A7B39F" stroke="none" stroke-width="0"/><rect id="n456-outline" x="746" y="505" width="3" height="12" rx="2" fill="#A7B39F" stroke="none" stroke-width="0"/><rect id="n457-outline" x="754" y="505" width="3" height="12" rx="2" fill="#A7B39F" stroke="none" stroke-width="0"/><rect id="n458-outline" x="762" y="505" width="3" height="12" rx="2" fill="#A7B39F" stroke="none" stroke-width="0"/><rect id="n459-outline" x="770" y="505" width="3" height="12" rx="2" fill="#A7B39F" stroke="none" stroke-width="0"/><rect id="n460-outline" x="778" y="505" width="3" height="12" rx="2" fill="#A7B39F" stroke="none" stroke-width="0"/><rect id="n461-outline" x="786" y="505" width="3" height="12" rx="2" fill="#A7B39F" stroke="none" stroke-width="0"/><rect id="n462-outline" x="794" y="505" width="3" height="12" rx="2" fill="#A7B39F" stroke="none" stroke-width="0"/><rect id="n463-outline" x="802" y="505" width="3" height="12" rx="2" fill="#A7B39F" stroke="none" stroke-width="0"/><rect id="n464-outline" x="810" y="505" width="3" height="12" rx="2" fill="#A7B39F" stroke="none" stroke-width="0"/><rect id="n465-outline" x="818" y="505" width="3" height="12" rx="2" fill="#A7B39F" stroke="none" stroke-width="0"/><rect id="n466-outline" x="554" y="724" width="342" height="46" rx="23" fill="#DDE6D6" stroke="none" stroke-width="0"/><text id="n467-line-1" x="725.0" y="746.5" text-anchor="middle" dominant-baseline="central" font-family="Noto Sans SC" font-size="15" font-weight="400" fill="#303D35">Resume</text><rect id="n468-outline" x="554" y="782" width="342" height="46" rx="23" fill="white" stroke="#DCE1D8" stroke-width="1"/><text id="n469-line-1" x="725.0" y="804.5" text-anchor="middle" dominant-baseline="central" font-family="Noto Sans SC" font-size="15" font-weight="400" fill="#303D35">Stop recording</text><rect id="n470-outline" x="868" y="170" width="22" height="24" rx="3" fill="none" stroke="#657065" stroke-width="1"/><path id="n471" d="M 873 177 L 885 177" fill="none" stroke="#657065" stroke-width="1.4" stroke-linejoin="round"/><path id="n472" d="M 873 183 L 885 183" fill="none" stroke="#657065" stroke-width="1.4" stroke-linejoin="round"/></g></svg>