<svg xmlns="http://www.w3.org/2000/svg" width="960" height="1010" viewBox="0 0 960 1010"><rect width="100%" height="100%" fill="#FBF6EB"/><text id="n165-line-1" x="40" y="40.0" text-anchor="start" dominant-baseline="central" font-family="Noto Sans SC" font-size="26" font-weight="400" fill="#303D35">Reflection · 查看自己的全部记录</text><text id="n166-line-1" x="40" y="82.5" text-anchor="start" dominant-baseline="central" font-family="Noto Sans SC" font-size="15" font-weight="400" fill="#303D35">P05 · 日期、问题与回答摘要</text><g id="n167"><rect id="n167-outline" x="40" y="108" width="390" height="844" rx="28" fill="white" stroke="#DCE1D8" stroke-width="1"/><text id="n168-line-1" x="64" y="130.5" text-anchor="start" dominant-baseline="central" font-family="Noto Sans SC" font-size="12" font-weight="400" fill="#303D35">9:41</text><text id="n169-line-1" x="92" y="183.5" text-anchor="start" dominant-baseline="central" font-family="Georgia" font-size="25" font-weight="400" fill="#303D35">My reflections</text><rect id="n170-outline" x="180" y="931" width="110" height="4" rx="2" fill="#303D35" stroke="none" stroke-width="0"/><path id="n171" d="M 73 176 L 67 183 L 73 190" fill="none" stroke="#657065" stroke-width="1.8" stroke-linejoin="round"/><rect id="n172-outline" x="64" y="244" width="342" height="192" rx="14" fill="#F3F5EF" stroke="#DCE1D8" stroke-width="1"/><text id="n173-line-1" x="82" y="266.5" text-anchor="start" dominant-baseline="central" font-family="Noto Sans SC" font-size="11" font-weight="400" fill="#657065">4 OCT 2026</text><text id="n174-line-1" x="82" y="300.5" text-anchor="start" dominant-baseline="central" font-family="Georgia" font-size="21" font-weight="400" fill="#303D35">What would you love someone</text><text id="n174-line-2" x="82" y="329.5" text-anchor="start" dominant-baseline="central" font-family="Georgia" font-size="21" font-weight="400" fill="#303D35">to ask you today?</text><text id="n175-line-1" x="82" y="364.0" text-anchor="start" dominant-baseline="central" font-family="Noto Sans SC" font-size="13" font-weight="400" fill="#657065">I wish someone would ask how I…</text><rect id="n180-outline" x="64" y="454" width="342" height="192" rx="14" fill="#F3F5EF" stroke="#DCE1D8" stroke-width="1"/><text id="n181-line-1" x="82" y="476.5" text-anchor="start" dominant-baseline="central" font-family="Noto Sans SC" font-size="11" font-weight="400" fill="#657065">3 OCT 2026</text><text id="n182-line-1" x="82" y="510.5" text-anchor="start" dominant-baseline="central" font-family="Georgia" font-size="21" font-weight="400" fill="#303D35">When do you feel most</text><text id="n182-line-2" x="82" y="539.5" text-anchor="start" dominant-baseline="central" font-family="Georgia" font-size="21" font-weight="400" fill="#303D35">like yourself?</text><text id="n183-line-1" x="82" y="574.0" text-anchor="start" dominant-baseline="central" font-family="Noto Sans SC" font-size="13" font-weight="400" fill="#657065">When I have a quiet moment to…</text><rect id="n186-outline" x="64" y="664" width="342" height="192" rx="14" fill="#F3F5EF" stroke="#DCE1D8" stroke-width="1"/><text id="n187-line-1" x="82" y="686.5" text-anchor="start" dominant-baseline="central" font-family="Noto Sans SC" font-size="11" font-weight="400" fill="#657065">2 OCT 2026</text><text id="n188-line-1" x="82" y="720.5" text-anchor="start" dominant-baseline="central" font-family="Georgia" font-size="21" font-weight="400" fill="#303D35">What helps you feel</text><text id="n188-line-2" x="82" y="749.5" text-anchor="start" dominant-baseline="central" font-family="Georgia" font-size="21" font-weight="400" fill="#303D35">deeply loved?</text><text id="n189-line-1" x="82" y="784.0" text-anchor="start" dominant-baseline="central" font-family="Noto Sans SC" font-size="13" font-weight="400" fill="#657065">When someone remembers the…</text><path id="n592" d="M 374 405.5 L 374 412.5" fill="none" stroke="#657065" stroke-width="1.7" stroke-linejoin="round"/><path id="n593" d="M 378 401.5 L 378 416.5" fill="none" stroke="#657065" stroke-width="1.7" stroke-linejoin="round"/><path id="n594" d="M 382 398.0 L 382 420.0" fill="none" stroke="#657065" stroke-width="1.7" stroke-linejoin="round"/><path id="n595" d="M 386 402.5 L 386 415.5" fill="none" stroke="#657065" stroke-width="1.7" stroke-linejoin="round"/><path id="n596" d="M 390 405.5 L 390 412.5" fill="none" stroke="#657065" stroke-width="1.7" stroke-linejoin="round"/><path id="n597" d="M 342 825.5 L 342 832.5" fill="none" stroke="#657065" stroke-width="1.7" stroke-linejoin="round"/><path id="n598" d="M 346 821.5 L 346 836.5" fill="none" stroke="#657065" stroke-width="1.7" stroke-linejoin="round"/><path id="n599" d="M 350 818.0 L 350 840.0" fill="none" stroke="#657065" stroke-width="1.7" stroke-linejoin="round"/><path id="n600" d="M 354 822.5 L 354 835.5" fill="none" stroke="#657065" stroke-width="1.7" stroke-linejoin="round"/><path id="n601" d="M 358 825.5 L 358 832.5" fill="none" stroke="#657065" stroke-width="1.7" stroke-linejoin="round"/><rect id="n602-outline" x="374" y="816" width="16" height="21" rx="3" fill="none" stroke="#657065" stroke-width="1"/><path id="n603" d="M 378 823 L 386 823" fill="none" stroke="#657065" stroke-width="1.4" stroke-linejoin="round"/></g><text id="n197-line-1" x="530" y="82.5" text-anchor="start" dominant-baseline="central" font-family="Noto Sans SC" font-size="15" font-weight="400" fill="#303D35">P06 · 纯语音记录详情</text><g id="n198"><rect id="n198-outline" x="530" y="108" width="390" height="844" rx="28" fill="white" stroke="#DCE1D8" stroke-width="1"/><text id="n199-line-1" x="554" y="130.5" text-anchor="start" dominant-baseline="central" font-family="Noto Sans SC" font-size="12" font-weight="400" fill="#303D35">9:41</text><text id="n200-line-1" x="582" y="183.5" text-anchor="start" dominant-baseline="central" font-family="Georgia" font-size="25" font-weight="400" fill="#303D35">Reflection</text><rect id="n201-outline" x="670" y="931" width="110" height="4" rx="2" fill="#303D35" stroke="none" stroke-width="0"/><path id="n202" d="M 563 176 L 557 183 L 563 190" fill="none" stroke="#657065" stroke-width="1.8" stroke-linejoin="round"/><text id="n203-line-1" x="554" y="238.5" text-anchor="start" dominant-baseline="central" font-family="Noto Sans SC" font-size="11" font-weight="400" fill="#657065">1 OCT 2026</text><text id="n204-line-1" x="554" y="291.0" text-anchor="start" dominant-baseline="central" font-family="Georgia" font-size="27" font-weight="400" fill="#303D35">What helps you feel</text><text id="n204-line-2" x="554" y="329.0" text-anchor="start" dominant-baseline="central" font-family="Georgia" font-size="27" font-weight="400" fill="#303D35">deeply loved?</text><rect id="n205-outline" x="649.0" y="429.0" width="152" height="152" rx="76.0" fill="none" stroke="#E0E7DC" stroke-width="1"/><rect id="n206-outline" x="669.0" y="449.0" width="112" height="112" rx="56.0" fill="none" stroke="#E0E7DC" stroke-width="1"/><rect id="n207-outline" x="687.0" y="467.0" width="76" height="76" rx="38.0" fill="none" stroke="#E0E7DC" stroke-width="1"/><rect id="n208-outline" x="664" y="499.0" width="3" height="12" rx="2" fill="#819477" stroke="none" stroke-width="0"/><rect id="n209-outline" x="671" y="493.5" width="3" height="23" rx="2" fill="#819477" stroke="none" stroke-width="0"/><rect id="n210-outline" x="678" y="486.5" width="3" height="37" rx="2" fill="#819477" stroke="none" stroke-width="0"/><rect id="n211-outline" x="685" y="479.0" width="3" height="52" rx="2" fill="#819477" stroke="none" stroke-width="0"/><rect id="n212-outline" x="692" y="491.0" width="3" height="28" rx="2" fill="#819477" stroke="none" stroke-width="0"/><rect id="n213-outline" x="699" y="485.0" width="3" height="40" rx="2" fill="#819477" stroke="none" stroke-width="0"/><rect id="n214-outline" x="706" y="496.5" width="3" height="17" rx="2" fill="#819477" stroke="none" stroke-width="0"/><rect id="n215-outline" x="713" y="499.0" width="3" height="12" rx="2" fill="#819477" stroke="none" stroke-width="0"/><rect id="n216-outline" x="720" y="493.5" width="3" height="23" rx="2" fill="#819477" stroke="none" stroke-width="0"/><rect id="n217-outline" x="727" y="486.5" width="3" height="37" rx="2" fill="#819477" stroke="none" stroke-width="0"/><rect id="n218-outline" x="734" y="479.0" width="3" height="52" rx="2" fill="#819477" stroke="none" stroke-width="0"/><rect id="n219-outline" x="741" y="491.0" width="3" height="28" rx="2" fill="#819477" stroke="none" stroke-width="0"/><rect id="n220-outline" x="748" y="485.0" width="3" height="40" rx="2" fill="#819477" stroke="none" stroke-width="0"/><rect id="n221-outline" x="755" y="496.5" width="3" height="17" rx="2" fill="#819477" stroke="none" stroke-width="0"/><rect id="n222-outline" x="762" y="499.0" width="3" height="12" rx="2" fill="#819477" stroke="none" stroke-width="0"/><rect id="n223-outline" x="769" y="493.5" width="3" height="23" rx="2" fill="#819477" stroke="none" stroke-width="0"/><rect id="n224-outline" x="776" y="486.5" width="3" height="37" rx="2" fill="#819477" stroke="none" stroke-width="0"/><rect id="n225-outline" x="701" y="607" width="48" height="48" rx="24" fill="#F3F5EF" stroke="#DCE1D8" stroke-width="1"/><path id="n226" d="M 720 621 L 720 641 L 735 631 L 720 621" fill="none" stroke="#303D35" stroke-width="1.5" stroke-linejoin="round"/><text id="n227-line-1" x="725.0" y="580.0" text-anchor="middle" dominant-baseline="central" font-family="Noto Sans SC" font-size="13" font-weight="400" fill="#657065">0:00 / 0:41</text><rect id="n228-outline" x="554" y="731" width="342" height="46" rx="23" fill="white" stroke="#DCE1D8" stroke-width="1"/><text id="n229-line-1" x="725.0" y="753.5" text-anchor="middle" dominant-baseline="central" font-family="Noto Sans SC" font-size="15" font-weight="400" fill="#303D35">Make voice into Card</text><text id="n230-line-1" x="725.0" y="805.5" text-anchor="middle" dominant-baseline="central" font-family="Noto Sans SC" font-size="12" font-weight="400" fill="#657065">Only you can see your reflection.</text></g></svg>