<svg xmlns="http://www.w3.org/2000/svg" width="1440" height="1010" viewBox="0 0 1440 1010"><rect width="100%" height="100%" fill="#FBF6EB"/><text id="n50114-line-1" x="40" y="40.0" text-anchor="start" dominant-baseline="central" font-family="Noto Sans SC" font-size="26" font-weight="400" fill="#303D35">Reflection · 保存中、失败与返回 Practice</text><text id="n50115-line-1" x="40" y="82.0" text-anchor="start" dominant-baseline="central" font-family="Noto Sans SC" font-size="14" font-weight="400" fill="#303D35">S01 · 保存中</text><g id="n50116"><rect id="n50116-outline" x="40" y="108" width="390" height="844" rx="28" fill="white" stroke="#DCE1D8" stroke-width="1"/><text id="n50117-line-1" x="64" y="130.5" text-anchor="start" dominant-baseline="central" font-family="Noto Sans SC" font-size="12" font-weight="400" fill="#303D35">9:41</text><path id="n50118" d="M 73 176 L 67 183 L 73 190" fill="none" stroke="#657065" stroke-width="1.8" stroke-linejoin="round"/><text id="n50119-line-1" x="92" y="183.5" text-anchor="start" dominant-baseline="central" font-family="Georgia" font-size="25" font-weight="400" fill="#303D35">Reflection</text><rect id="n50120-outline" x="180" y="931" width="110" height="4" rx="2" fill="#303D35" stroke="none" stroke-width="0"/><rect id="n50121-outline" x="378" y="170" width="22" height="24" rx="3" fill="none" stroke="#657065" stroke-width="1"/><path id="n50122" d="M 383 177 L 395 177" fill="none" stroke="#657065" stroke-width="1.4" stroke-linejoin="round"/><path id="n50123" d="M 383 183 L 395 183" fill="none" stroke="#657065" stroke-width="1.4" stroke-linejoin="round"/><path id="n50124" d="M 383 189 L 395 189" fill="none" stroke="#657065" stroke-width="1.4" stroke-linejoin="round"/><text id="n50125-line-1" x="64" y="230.5" text-anchor="start" dominant-baseline="central" font-family="Noto Sans SC" font-size="11" font-weight="400" fill="#657065">4 OCT 2026</text><text id="n50126-line-1" x="64" y="273.5" text-anchor="start" dominant-baseline="central" font-family="Georgia" font-size="25" font-weight="400" fill="#303D35">What would you love</text><text id="n50126-line-2" x="64" y="308.5" text-anchor="start" dominant-baseline="central" font-family="Georgia" font-size="25" font-weight="400" fill="#303D35">someone to ask you today?</text><rect id="n50127-outline" x="64" y="371" width="342" height="54" rx="14" fill="#F3F5EF" stroke="#DCE1D8" stroke-width="1"/><path id="n50128" d="M 82 388 L 82 408 L 96 398 L 82 388" fill="none" stroke="#303D35" stroke-width="1.5" stroke-linejoin="round"/><rect id="n50129-outline" x="120" y="394.0" width="2" height="8" rx="1" fill="#819477" stroke="none" stroke-width="0"/><rect id="n50130-outline" x="128" y="389.5" width="2" height="17" rx="1" fill="#819477" stroke="none" stroke-width="0"/><rect id="n50131-outline" x="136" y="385.5" width="2" height="25" rx="1" fill="#819477" stroke="none" stroke-width="0"/><rect id="n50132-outline" x="144" y="392.0" width="2" height="12" rx="1" fill="#819477" stroke="none" stroke-width="0"/><rect id="n50133-outline" x="152" y="387.5" width="2" height="21" rx="1" fill="#819477" stroke="none" stroke-width="0"/><rect id="n50134-outline" x="160" y="394.0" width="2" height="8" rx="1" fill="#819477" stroke="none" stroke-width="0"/><rect id="n50135-outline" x="168" y="389.5" width="2" height="17" rx="1" fill="#819477" stroke="none" stroke-width="0"/><rect id="n50136-outline" x="176" y="385.5" width="2" height="25" rx="1" fill="#819477" stroke="none" stroke-width="0"/><rect id="n50137-outline" x="184" y="392.0" width="2" height="12" rx="1" fill="#819477" stroke="none" stroke-width="0"/><rect id="n50138-outline" x="192" y="387.5" width="2" height="21" rx="1" fill="#819477" stroke="none" stroke-width="0"/><rect id="n50139-outline" x="200" y="394.0" width="2" height="8" rx="1" fill="#819477" stroke="none" stroke-width="0"/><rect id="n50140-outline" x="208" y="389.5" width="2" height="17" rx="1" fill="#819477" stroke="none" stroke-width="0"/><rect id="n50141-outline" x="216" y="385.5" width="2" height="25" rx="1" fill="#819477" stroke="none" stroke-width="0"/><rect id="n50142-outline" x="224" y="392.0" width="2" height="12" rx="1" fill="#819477" stroke="none" stroke-width="0"/><rect id="n50143-outline" x="232" y="387.5" width="2" height="21" rx="1" fill="#819477" stroke="none" stroke-width="0"/><rect id="n50144-outline" x="240" y="394.0" width="2" height="8" rx="1" fill="#819477" stroke="none" stroke-width="0"/><rect id="n50145-outline" x="248" y="389.5" width="2" height="17" rx="1" fill="#819477" stroke="none" stroke-width="0"/><rect id="n50146-outline" x="256" y="385.5" width="2" height="25" rx="1" fill="#819477" stroke="none" stroke-width="0"/><rect id="n50147-outline" x="264" y="392.0" width="2" height="12" rx="1" fill="#819477" stroke="none" stroke-width="0"/><rect id="n50148-outline" x="272" y="387.5" width="2" height="21" rx="1" fill="#819477" stroke="none" stroke-width="0"/><rect id="n50149-outline" x="280" y="394.0" width="2" height="8" rx="1" fill="#819477" stroke="none" stroke-width="0"/><rect id="n50150-outline" x="288" y="389.5" width="2" height="17" rx="1" fill="#819477" stroke="none" stroke-width="0"/><rect id="n50151-outline" x="296" y="385.5" width="2" height="25" rx="1" fill="#819477" stroke="none" stroke-width="0"/><text id="n50152-line-1" x="390" y="398.0" text-anchor="end" dominant-baseline="central" font-family="Noto Sans SC" font-size="13" font-weight="400" fill="#303D35">0:24</text><rect id="n50153-outline" x="64" y="448" width="342" height="165" rx="14" fill="white" stroke="#DCE1D8" stroke-width="1"/><text id="n50154-line-1" x="80" y="479.0" text-anchor="start" dominant-baseline="central" font-family="Noto Sans SC" font-size="17" font-weight="400" fill="#303D35">I wish someone would ask</text><text id="n50154-line-2" x="80" y="503.0" text-anchor="start" dominant-baseline="central" font-family="Noto Sans SC" font-size="17" font-weight="400" fill="#303D35">how I am, without rushing.</text><rect id="n50155-outline" x="64" y="675" width="342" height="46" rx="23" fill="#ECEEEA" stroke="none" stroke-width="0"/><text id="n50156-line-1" x="235.0" y="697.5" text-anchor="middle" dominant-baseline="central" font-family="Noto Sans SC" font-size="15" font-weight="400" fill="#A4AAA1">Saving…</text></g><text id="n50157-line-1" x="525" y="82.0" text-anchor="start" dominant-baseline="central" font-family="Noto Sans SC" font-size="14" font-weight="400" fill="#303D35">S02 · 保存失败，可重试</text><g id="n50158"><rect id="n50158-outline" x="525" y="108" width="390" height="844" rx="28" fill="white" stroke="#DCE1D8" stroke-width="1"/><text id="n50159-line-1" x="549" y="130.5" text-anchor="start" dominant-baseline="central" font-family="Noto Sans SC" font-size="12" font-weight="400" fill="#303D35">9:41</text><path id="n50160" d="M 558 176 L 552 183 L 558 190" fill="none" stroke="#657065" stroke-width="1.8" stroke-linejoin="round"/><text id="n50161-line-1" x="577" y="183.5" text-anchor="start" dominant-baseline="central" font-family="Georgia" font-size="25" font-weight="400" fill="#303D35">Reflection</text><rect id="n50162-outline" x="665" y="931" width="110" height="4" rx="2" fill="#303D35" stroke="none" stroke-width="0"/><rect id="n50163-outline" x="863" y="170" width="22" height="24" rx="3" fill="none" stroke="#657065" stroke-width="1"/><path id="n50164" d="M 868 177 L 880 177" fill="none" stroke="#657065" stroke-width="1.4" stroke-linejoin="round"/><path id="n50165" d="M 868 183 L 880 183" fill="none" stroke="#657065" stroke-width="1.4" stroke-linejoin="round"/><path id="n50166" d="M 868 189 L 880 189" fill="none" stroke="#657065" stroke-width="1.4" stroke-linejoin="round"/><text id="n50167-line-1" x="549" y="230.5" text-anchor="start" dominant-baseline="central" font-family="Noto Sans SC" font-size="11" font-weight="400" fill="#657065">4 OCT 2026</text><text id="n50168-line-1" x="549" y="273.5" text-anchor="start" dominant-baseline="central" font-family="Georgia" font-size="25" font-weight="400" fill="#303D35">What would you love</text><text id="n50168-line-2" x="549" y="308.5" text-anchor="start" dominant-baseline="central" font-family="Georgia" font-size="25" font-weight="400" fill="#303D35">someone to ask you today?</text><rect id="n50169-outline" x="549" y="371" width="342" height="54" rx="14" fill="#F3F5EF" stroke="#DCE1D8" stroke-width="1"/><path id="n50170" d="M 567 388 L 567 408 L 581 398 L 567 388" fill="none" stroke="#303D35" stroke-width="1.5" stroke-linejoin="round"/><rect id="n50171-outline" x="605" y="394.0" width="2" height="8" rx="1" fill="#819477" stroke="none" stroke-width="0"/><rect id="n50172-outline" x="613" y="389.5" width="2" height="17" rx="1" fill="#819477" stroke="none" stroke-width="0"/><rect id="n50173-outline" x="621" y="385.5" width="2" height="25" rx="1" fill="#819477" stroke="none" stroke-width="0"/><rect id="n50174-outline" x="629" y="392.0" width="2" height="12" rx="1" fill="#819477" stroke="none" stroke-width="0"/><rect id="n50175-outline" x="637" y="387.5" width="2" height="21" rx="1" fill="#819477" stroke="none" stroke-width="0"/><rect id="n50176-outline" x="645" y="394.0" width="2" height="8" rx="1" fill="#819477" stroke="none" stroke-width="0"/><rect id="n50177-outline" x="653" y="389.5" width="2" height="17" rx="1" fill="#819477" stroke="none" stroke-width="0"/><rect id="n50178-outline" x="661" y="385.5" width="2" height="25" rx="1" fill="#819477" stroke="none" stroke-width="0"/><rect id="n50179-outline" x="669" y="392.0" width="2" height="12" rx="1" fill="#819477" stroke="none" stroke-width="0"/><rect id="n50180-outline" x="677" y="387.5" width="2" height="21" rx="1" fill="#819477" stroke="none" stroke-width="0"/><rect id="n50181-outline" x="685" y="394.0" width="2" height="8" rx="1" fill="#819477" stroke="none" stroke-width="0"/><rect id="n50182-outline" x="693" y="389.5" width="2" height="17" rx="1" fill="#819477" stroke="none" stroke-width="0"/><rect id="n50183-outline" x="701" y="385.5" width="2" height="25" rx="1" fill="#819477" stroke="none" stroke-width="0"/><rect id="n50184-outline" x="709" y="392.0" width="2" height="12" rx="1" fill="#819477" stroke="none" stroke-width="0"/><rect id="n50185-outline" x="717" y="387.5" width="2" height="21" rx="1" fill="#819477" stroke="none" stroke-width="0"/><rect id="n50186-outline" x="725" y="394.0" width="2" height="8" rx="1" fill="#819477" stroke="none" stroke-width="0"/><rect id="n50187-outline" x="733" y="389.5" width="2" height="17" rx="1" fill="#819477" stroke="none" stroke-width="0"/><rect id="n50188-outline" x="741" y="385.5" width="2" height="25" rx="1" fill="#819477" stroke="none" stroke-width="0"/><rect id="n50189-outline" x="749" y="392.0" width="2" height="12" rx="1" fill="#819477" stroke="none" stroke-width="0"/><rect id="n50190-outline" x="757" y="387.5" width="2" height="21" rx="1" fill="#819477" stroke="none" stroke-width="0"/><rect id="n50191-outline" x="765" y="394.0" width="2" height="8" rx="1" fill="#819477" stroke="none" stroke-width="0"/><rect id="n50192-outline" x="773" y="389.5" width="2" height="17" rx="1" fill="#819477" stroke="none" stroke-width="0"/><rect id="n50193-outline" x="781" y="385.5" width="2" height="25" rx="1" fill="#819477" stroke="none" stroke-width="0"/><text id="n50194-line-1" x="875" y="398.0" text-anchor="end" dominant-baseline="central" font-family="Noto Sans SC" font-size="13" font-weight="400" fill="#303D35">0:24</text><rect id="n50195-outline" x="549" y="448" width="342" height="165" rx="14" fill="white" stroke="#DCE1D8" stroke-width="1"/><text id="n50196-line-1" x="565" y="479.0" text-anchor="start" dominant-baseline="central" font-family="Noto Sans SC" font-size="17" font-weight="400" fill="#303D35">I wish someone would ask</text><text id="n50196-line-2" x="565" y="503.0" text-anchor="start" dominant-baseline="central" font-family="Noto Sans SC" font-size="17" font-weight="400" fill="#303D35">how I am, without rushing.</text><text id="n50197-line-1" x="549" y="647.0" text-anchor="start" dominant-baseline="central" font-family="Noto Sans SC" font-size="13" font-weight="400" fill="#A96E63">Couldn’t save. Your draft is safe.</text><rect id="n50198-outline" x="549" y="679" width="342" height="46" rx="23" fill="#DDE6D6" stroke="none" stroke-width="0"/><text id="n50199-line-1" x="720.0" y="701.5" text-anchor="middle" dominant-baseline="central" font-family="Noto Sans SC" font-size="15" font-weight="400" fill="#303D35">Try again</text><rect id="n50200-outline" x="549" y="737" width="342" height="46" rx="23" fill="white" stroke="#DCE1D8" stroke-width="1"/><text id="n50201-line-1" x="720.0" y="759.5" text-anchor="middle" dominant-baseline="central" font-family="Noto Sans SC" font-size="15" font-weight="400" fill="#303D35">Keep editing</text></g><text id="n50202-line-1" x="1010" y="82.0" text-anchor="start" dominant-baseline="central" font-family="Noto Sans SC" font-size="14" font-weight="400" fill="#303D35">S03 · 回到原位置，显示保存摘要</text><g id="n50203"><rect id="n50203-outline" x="1010" y="108" width="390" height="844" rx="28" fill="white" stroke="#DCE1D8" stroke-width="1"/><text id="n50204-line-1" x="1034" y="130.5" text-anchor="start" dominant-baseline="central" font-family="Noto Sans SC" font-size="12" font-weight="400" fill="#303D35">9:41</text><text id="n50205-line-1" x="1034" y="183.5" text-anchor="start" dominant-baseline="central" font-family="Georgia" font-size="25" font-weight="400" fill="#303D35">Practice</text><rect id="n50206-outline" x="1150" y="931" width="110" height="4" rx="2" fill="#303D35" stroke="none" stroke-width="0"/><text id="n50207-line-1" x="1034" y="262.0" text-anchor="start" dominant-baseline="central" font-family="Georgia" font-size="26" font-weight="400" fill="#303D35">Reflection</text><rect id="n50208-outline" x="1034" y="308" width="342" height="293" rx="16" fill="#F3F5EF" stroke="#DCE1D8" stroke-width="1"/><text id="n50209-line-1" x="1054" y="336.5" text-anchor="start" dominant-baseline="central" font-family="Noto Sans SC" font-size="11" font-weight="400" fill="#657065">4 OCT 2026</text><text id="n50210-line-1" x="1054" y="382.0" text-anchor="start" dominant-baseline="central" font-family="Georgia" font-size="24" font-weight="400" fill="#303D35">What would you love</text><text id="n50210-line-2" x="1054" y="416.0" text-anchor="start" dominant-baseline="central" font-family="Georgia" font-size="24" font-weight="400" fill="#303D35">someone to ask you today?</text><text id="n50211-line-1" x="1054" y="484.0" text-anchor="start" dominant-baseline="central" font-family="Noto Sans SC" font-size="13" font-weight="400" fill="#657065">I wish someone would ask how I…</text><path id="n50212" d="M 1338 555.5 L 1338 562.5" fill="none" stroke="#657065" stroke-width="1.7" stroke-linejoin="round"/><path id="n50213" d="M 1342 551.5 L 1342 566.5" fill="none" stroke="#657065" stroke-width="1.7" stroke-linejoin="round"/><path id="n50214" d="M 1346 548.0 L 1346 570.0" fill="none" stroke="#657065" stroke-width="1.7" stroke-linejoin="round"/><path id="n50215" d="M 1350 552.5 L 1350 565.5" fill="none" stroke="#657065" stroke-width="1.7" stroke-linejoin="round"/><path id="n50216" d="M 1354 555.5 L 1354 562.5" fill="none" stroke="#657065" stroke-width="1.7" stroke-linejoin="round"/><text id="n50217-line-1" x="1205.0" y="644.0" text-anchor="middle" dominant-baseline="central" font-family="Noto Sans SC" font-size="14" font-weight="400" fill="#657065">Saved to reflections</text><rect id="n50218-outline" x="1034" y="700" width="342" height="46" rx="23" fill="white" stroke="#DCE1D8" stroke-width="1"/><text id="n50219-line-1" x="1205.0" y="722.5" text-anchor="middle" dominant-baseline="central" font-family="Noto Sans SC" font-size="15" font-weight="400" fill="#303D35">Edit today’s reflection</text></g></svg>