<svg xmlns="http://www.w3.org/2000/svg" width="550" height="1020" viewBox="0 0 550 1020"><rect width="100%" height="100%" fill="#FBF6EB"/><text id="n1-line-1" x="48" y="44.5" text-anchor="start" dominant-baseline="central" font-family="Noto Sans SC" font-size="28" font-weight="400" fill="#303D35">Practice · Try again</text><text id="n2-line-1" x="48" y="87.0" text-anchor="start" dominant-baseline="central" font-family="Noto Sans SC" font-size="16" font-weight="400" fill="#657065">首次加载失败 · 保留重试入口</text><g id="n3"><rect id="n3-outline" x="80" y="132" width="390" height="844" rx="24" fill="white" stroke="#303D35" stroke-width="1"/><text id="n4-line-1" x="104" y="152.5" text-anchor="start" dominant-baseline="central" font-family="Noto Sans SC" font-size="12" font-weight="400" fill="#303D35">9:41</text><text id="n5-line-1" x="368" y="152.5" text-anchor="start" dominant-baseline="central" font-family="Noto Sans SC" font-size="12" font-weight="400" fill="#303D35">●  )))  ▰</text><text id="n10-line-1" x="104" y="203.5" text-anchor="start" dominant-baseline="central" font-family="Georgia" font-size="28" font-weight="400" fill="#303D35">Practice</text><rect id="n76-outline" x="81" y="898" width="388" height="62" rx="0" fill="white" stroke="none" stroke-width="0"/><path id="n77" d="M 81 898 L 469 898" fill="none" stroke="#DCE1D8" stroke-width="1" stroke-linejoin="round"/><path id="n78" d="M 126 919 L 136 910 L 146 919 L 144 919 L 144 930 L 129 930 L 129 919" fill="none" stroke="#303D35" stroke-width="1.5" stroke-linejoin="round"/><text id="n79-line-1" x="137.0" y="942.5" text-anchor="middle" dominant-baseline="central" font-family="Noto Sans SC" font-size="12" font-weight="400" fill="#657065">Home</text><path id="n80" d="M 216 930 L 233 912 L 234 921 L 229 928 L 220 928 L 217 922 L 220 916 L 233 912" fill="none" stroke="#303D35" stroke-width="1.5" stroke-linejoin="round"/><text id="n81-line-1" x="226.0" y="942.5" text-anchor="middle" dominant-baseline="central" font-family="Noto Sans SC" font-size="12" font-weight="400" fill="#303D35">Practice</text><path id="n82" d="M 314 911 L 314 930" fill="none" stroke="#303D35" stroke-width="1.5" stroke-linejoin="round"/><path id="n83" d="M 305 920 L 324 920" fill="none" stroke="#303D35" stroke-width="1.5" stroke-linejoin="round"/><text id="n84-line-1" x="315.0" y="942.5" text-anchor="middle" dominant-baseline="central" font-family="Noto Sans SC" font-size="12" font-weight="400" fill="#657065">Create</text><rect id="n85-outline" x="395" y="910" width="7" height="7" rx="4" fill="none" stroke="#303D35" stroke-width="1"/><rect id="n86-outline" x="405" y="912" width="6" height="6" rx="3" fill="none" stroke="#303D35" stroke-width="1"/><path id="n87" d="M 393 930 L 393 926 L 396 922 L 401 922 L 404 926 L 404 930" fill="none" stroke="#303D35" stroke-width="1.5" stroke-linejoin="round"/><path id="n88" d="M 407 922 L 412 925 L 412 930" fill="none" stroke="#303D35" stroke-width="1.5" stroke-linejoin="round"/><text id="n89-line-1" x="404.0" y="942.5" text-anchor="middle" dominant-baseline="central" font-family="Noto Sans SC" font-size="12" font-weight="400" fill="#657065">Share</text><rect id="n90-outline" x="204" y="955" width="38" height="3" rx="2" fill="#303D35" stroke="none" stroke-width="0"/><rect id="n91-outline" x="220" y="966" width="110" height="4" rx="2" fill="#303D35" stroke="none" stroke-width="0"/><text id="n27101-line-1" x="275.0" y="405.0" text-anchor="middle" dominant-baseline="central" font-family="Georgia" font-size="27" font-weight="400" fill="#303D35">A little pause</text><text id="n27102-line-1" x="275.0" y="448.5" text-anchor="middle" dominant-baseline="central" font-family="Noto Sans SC" font-size="15" font-weight="400" fill="#657065">Couldn’t load your practice.</text><text id="n27102-line-2" x="275.0" y="469.5" text-anchor="middle" dominant-baseline="central" font-family="Noto Sans SC" font-size="15" font-weight="400" fill="#657065">Please try again.</text><rect id="n27103-outline" x="195" y="520" width="160" height="44" rx="22" fill="#F3F5EF" stroke="#DCE1D8" stroke-width="1"/><text id="n27104-line-1" x="275.0" y="543.0" text-anchor="middle" dominant-baseline="central" font-family="Noto Sans SC" font-size="14" font-weight="400" fill="#303D35">Try again</text></g></svg>