<svg xmlns="http://www.w3.org/2000/svg" width="550" height="1020" viewBox="0 0 550 1020"><rect width="100%" height="100%" fill="#FBF6EB"/><text id="n1-line-1" x="48" y="44.5" text-anchor="start" dominant-baseline="central" font-family="Noto Sans SC" font-size="28" font-weight="400" fill="#303D35">Practice · Overview</text><text id="n2-line-1" x="48" y="87.0" text-anchor="start" dominant-baseline="central" font-family="Noto Sans SC" font-size="16" font-weight="400" fill="#657065">预约提醒出现时 · 保持封面比例与完整周日历</text><g id="n3"><rect id="n3-outline" x="80" y="132" width="390" height="844" rx="24" fill="white" stroke="#303D35" stroke-width="1"/><text id="n4-line-1" x="104" y="152.5" text-anchor="start" dominant-baseline="central" font-family="Noto Sans SC" font-size="12" font-weight="400" fill="#303D35">9:41</text><text id="n5-line-1" x="368" y="152.5" text-anchor="start" dominant-baseline="central" font-family="Noto Sans SC" font-size="12" font-weight="400" fill="#303D35">●  )))  ▰</text><text id="n10-line-1" x="104" y="203.5" text-anchor="start" dominant-baseline="central" font-family="Georgia" font-size="28" font-weight="400" fill="#303D35">Practice</text><text id="n11-line-1" x="104" y="314.0" text-anchor="start" dominant-baseline="central" font-family="Georgia" font-size="24" font-weight="400" fill="#303D35">12 h 40 m</text><text id="n12-line-1" x="308" y="314.0" text-anchor="start" dominant-baseline="central" font-family="Georgia" font-size="24" font-weight="400" fill="#303D35">24</text><text id="n13-line-1" x="104" y="341.0" text-anchor="start" dominant-baseline="central" font-family="Noto Sans SC" font-size="13" font-weight="400" fill="#657065">Practice time</text><text id="n14-line-1" x="308" y="341.0" text-anchor="start" dominant-baseline="central" font-family="Noto Sans SC" font-size="13" font-weight="400" fill="#657065">Days practiced</text><path id="n15" d="M 286 299 L 286 351" fill="none" stroke="#DCE1D8" stroke-width="1" stroke-linejoin="round"/><text id="n16-line-1" x="104" y="386.0" text-anchor="start" dominant-baseline="central" font-family="Georgia" font-size="20" font-weight="400" fill="#303D35">Most practiced</text><rect id="n17-outline" x="104" y="408" width="106" height="192" rx="6" fill="#F6F7F2" stroke="#DCE1D8" stroke-width="1"/><rect id="n18-outline" x="104" y="408" width="106" height="120" rx="6" fill="#E8ECDF" stroke="#DCE1D8" stroke-width="1"/><rect id="n19-outline" x="110" y="414" width="94" height="108" rx="3" fill="none" stroke="#CCD4C5" stroke-width="1"/><rect id="n20-outline" x="145" y="430" width="24" height="24" rx="12" fill="#D1DAC8" stroke="none" stroke-width="0"/><path id="n21" d="M 118 493 L 144 482 L 169 496 L 196 484" fill="none" stroke="#A0AD96" stroke-width="1" stroke-linejoin="round"/><text id="n22-line-1" x="110" y="546.0" text-anchor="start" dominant-baseline="central" font-family="Georgia" font-size="13" font-weight="400" fill="#303D35">Evening calm</text><text id="n23-line-1" x="110" y="569.5" text-anchor="start" dominant-baseline="central" font-family="Noto Sans SC" font-size="12" font-weight="400" fill="#657065">Mia</text><text id="n24-line-1" x="110" y="587.5" text-anchor="start" dominant-baseline="central" font-family="Noto Sans SC" font-size="12" font-weight="400" fill="#657065">8 sessions</text><rect id="n25-outline" x="222" y="408" width="106" height="192" rx="6" fill="#F6F7F2" stroke="#DCE1D8" stroke-width="1"/><rect id="n26-outline" x="222" y="408" width="106" height="120" rx="6" fill="#EBE7DD" stroke="#DCE1D8" stroke-width="1"/><rect id="n27-outline" x="228" y="414" width="94" height="108" rx="3" fill="none" stroke="#CCD4C5" stroke-width="1"/><rect id="n28-outline" x="263" y="430" width="24" height="24" rx="12" fill="#D9D1C5" stroke="none" stroke-width="0"/><path id="n29" d="M 236 493 L 262 482 L 287 496 L 314 484" fill="none" stroke="#A0AD96" stroke-width="1" stroke-linejoin="round"/><text id="n30-line-1" x="228" y="546.0" text-anchor="start" dominant-baseline="central" font-family="Georgia" font-size="13" font-weight="400" fill="#303D35">Quiet mind</text><text id="n31-line-1" x="228" y="569.5" text-anchor="start" dominant-baseline="central" font-family="Noto Sans SC" font-size="12" font-weight="400" fill="#657065">Alex</text><text id="n32-line-1" x="228" y="587.5" text-anchor="start" dominant-baseline="central" font-family="Noto Sans SC" font-size="12" font-weight="400" fill="#657065">6 sessions</text><rect id="n33-outline" x="340" y="408" width="106" height="192" rx="6" fill="#F6F7F2" stroke="#DCE1D8" stroke-width="1"/><rect id="n34-outline" x="340" y="408" width="106" height="120" rx="6" fill="#E2EAE8" stroke="#DCE1D8" stroke-width="1"/><rect id="n35-outline" x="346" y="414" width="94" height="108" rx="3" fill="none" stroke="#CCD4C5" stroke-width="1"/><rect id="n36-outline" x="381" y="430" width="24" height="24" rx="12" fill="#C6D9D4" stroke="none" stroke-width="0"/><path id="n37" d="M 354 493 L 380 482 L 405 496 L 432 484" fill="none" stroke="#A0AD96" stroke-width="1" stroke-linejoin="round"/><text id="n38-line-1" x="346" y="546.0" text-anchor="start" dominant-baseline="central" font-family="Georgia" font-size="13" font-weight="400" fill="#303D35">Morning pause</text><text id="n39-line-1" x="346" y="569.5" text-anchor="start" dominant-baseline="central" font-family="Noto Sans SC" font-size="12" font-weight="400" fill="#657065">Noah</text><text id="n40-line-1" x="346" y="587.5" text-anchor="start" dominant-baseline="central" font-family="Noto Sans SC" font-size="12" font-weight="400" fill="#657065">5 sessions</text><text id="n41-line-1" x="104" y="627.0" text-anchor="start" dominant-baseline="central" font-family="Noto Sans SC" font-size="16" font-weight="400" fill="#303D35">Usual time</text><text id="n42-line-1" x="346" y="627.0" text-anchor="start" dominant-baseline="central" font-family="Noto Sans SC" font-size="16" font-weight="400" fill="#657065">8–10 pm</text><text id="n43-line-1" x="104" y="665.0" text-anchor="start" dominant-baseline="central" font-family="Noto Sans SC" font-size="16" font-weight="400" fill="#303D35">Practice mates</text><rect id="n44-outline" x="290" y="649" width="30" height="30" rx="15" fill="#DCE6D6" stroke="none" stroke-width="0"/><text id="n45-line-1" x="305.0" y="663.5" text-anchor="middle" dominant-baseline="central" font-family="Georgia" font-size="15" font-weight="400" fill="#303D35">A</text><rect id="n46-outline" x="328" y="649" width="30" height="30" rx="15" fill="#EAE3D7" stroke="none" stroke-width="0"/><text id="n47-line-1" x="343.0" y="663.5" text-anchor="middle" dominant-baseline="central" font-family="Georgia" font-size="15" font-weight="400" fill="#303D35">J</text><rect id="n48-outline" x="366" y="649" width="30" height="30" rx="15" fill="#DCE7E4" stroke="none" stroke-width="0"/><text id="n49-line-1" x="381.0" y="663.5" text-anchor="middle" dominant-baseline="central" font-family="Georgia" font-size="15" font-weight="400" fill="#303D35">G</text><text id="n50-line-1" x="427" y="664.5" text-anchor="start" dominant-baseline="central" font-family="Noto Sans SC" font-size="22" font-weight="400" fill="#303D35">›</text><path id="n51" d="M 104 685 L 446 685" fill="none" stroke="#DCE1D8" stroke-width="1" stroke-linejoin="round"/><text id="n52-line-1" x="104" y="721.5" text-anchor="start" dominant-baseline="central" font-family="Georgia" font-size="22" font-weight="400" fill="#303D35">Calendar</text><text id="n53-line-1" x="104" y="753.0" text-anchor="start" dominant-baseline="central" font-family="Noto Sans SC" font-size="14" font-weight="400" fill="#657065">28 Sep – 4 Oct</text><path id="n54" d="M 425 750 L 431 756 L 437 750" fill="none" stroke="#303D35" stroke-width="1.5" stroke-linejoin="round"/><text id="n55-line-1" x="123.0" y="782.5" text-anchor="middle" dominant-baseline="central" font-family="Noto Sans SC" font-size="12" font-weight="400" fill="#657065">M</text><rect id="n56-outline" x="104" y="798" width="38" height="36" rx="5" fill="#BDCFB2" stroke="none" stroke-width="0"/><text id="n57-line-1" x="123.0" y="816.0" text-anchor="middle" dominant-baseline="central" font-family="Noto Sans SC" font-size="14" font-weight="400" fill="#303D35">28</text><text id="n58-line-1" x="171.0" y="782.5" text-anchor="middle" dominant-baseline="central" font-family="Noto Sans SC" font-size="12" font-weight="400" fill="#657065">T</text><rect id="n59-outline" x="152" y="798" width="38" height="36" rx="5" fill="#F3F5EF" stroke="none" stroke-width="0"/><text id="n60-line-1" x="171.0" y="816.0" text-anchor="middle" dominant-baseline="central" font-family="Noto Sans SC" font-size="14" font-weight="400" fill="#303D35">29</text><text id="n61-line-1" x="219.0" y="782.5" text-anchor="middle" dominant-baseline="central" font-family="Noto Sans SC" font-size="12" font-weight="400" fill="#657065">W</text><rect id="n62-outline" x="200" y="798" width="38" height="36" rx="5" fill="#516D48" stroke="#303D35" stroke-width="1"/><text id="n63-line-1" x="219.0" y="816.0" text-anchor="middle" dominant-baseline="central" font-family="Noto Sans SC" font-size="14" font-weight="400" fill="white">30</text><text id="n64-line-1" x="267.0" y="782.5" text-anchor="middle" dominant-baseline="central" font-family="Noto Sans SC" font-size="12" font-weight="400" fill="#657065">T</text><rect id="n65-outline" x="248" y="798" width="38" height="36" rx="5" fill="#F3F5EF" stroke="none" stroke-width="0"/><text id="n66-line-1" x="267.0" y="816.0" text-anchor="middle" dominant-baseline="central" font-family="Noto Sans SC" font-size="14" font-weight="400" fill="#303D35">1</text><text id="n67-line-1" x="315.0" y="782.5" text-anchor="middle" dominant-baseline="central" font-family="Noto Sans SC" font-size="12" font-weight="400" fill="#657065">F</text><rect id="n68-outline" x="296" y="798" width="38" height="36" rx="5" fill="#F3F5EF" stroke="none" stroke-width="0"/><text id="n69-line-1" x="315.0" y="816.0" text-anchor="middle" dominant-baseline="central" font-family="Noto Sans SC" font-size="14" font-weight="400" fill="#303D35">2</text><text id="n70-line-1" x="363.0" y="782.5" text-anchor="middle" dominant-baseline="central" font-family="Noto Sans SC" font-size="12" font-weight="400" fill="#657065">S</text><rect id="n71-outline" x="344" y="798" width="38" height="36" rx="5" fill="#F3F5EF" stroke="none" stroke-width="0"/><text id="n72-line-1" x="363.0" y="816.0" text-anchor="middle" dominant-baseline="central" font-family="Noto Sans SC" font-size="14" font-weight="400" fill="#303D35">3</text><text id="n73-line-1" x="411.0" y="782.5" text-anchor="middle" dominant-baseline="central" font-family="Noto Sans SC" font-size="12" font-weight="400" fill="#657065">S</text><rect id="n74-outline" x="392" y="798" width="38" height="36" rx="5" fill="#F3F5EF" stroke="none" stroke-width="0"/><text id="n75-line-1" x="411.0" y="816.0" text-anchor="middle" dominant-baseline="central" font-family="Noto Sans SC" font-size="14" font-weight="400" fill="#303D35">4</text><rect id="n76-outline" x="81" y="898" width="388" height="62" rx="0" fill="white" stroke="none" stroke-width="0"/><path id="n77" d="M 81 898 L 469 898" fill="none" stroke="#DCE1D8" stroke-width="1" stroke-linejoin="round"/><path id="n78" d="M 126 919 L 136 910 L 146 919 L 144 919 L 144 930 L 129 930 L 129 919" fill="none" stroke="#303D35" stroke-width="1.5" stroke-linejoin="round"/><text id="n79-line-1" x="137.0" y="942.5" text-anchor="middle" dominant-baseline="central" font-family="Noto Sans SC" font-size="12" font-weight="400" fill="#657065">Home</text><path id="n80" d="M 216 930 L 233 912 L 234 921 L 229 928 L 220 928 L 217 922 L 220 916 L 233 912" fill="none" stroke="#303D35" stroke-width="1.5" stroke-linejoin="round"/><text id="n81-line-1" x="226.0" y="942.5" text-anchor="middle" dominant-baseline="central" font-family="Noto Sans SC" font-size="12" font-weight="400" fill="#303D35">Practice</text><path id="n82" d="M 314 911 L 314 930" fill="none" stroke="#303D35" stroke-width="1.5" stroke-linejoin="round"/><path id="n83" d="M 305 920 L 324 920" fill="none" stroke="#303D35" stroke-width="1.5" stroke-linejoin="round"/><text id="n84-line-1" x="315.0" y="942.5" text-anchor="middle" dominant-baseline="central" font-family="Noto Sans SC" font-size="12" font-weight="400" fill="#657065">Create</text><rect id="n85-outline" x="395" y="910" width="7" height="7" rx="4" fill="none" stroke="#303D35" stroke-width="1"/><rect id="n86-outline" x="405" y="912" width="6" height="6" rx="3" fill="none" stroke="#303D35" stroke-width="1"/><path id="n87" d="M 393 930 L 393 926 L 396 922 L 401 922 L 404 926 L 404 930" fill="none" stroke="#303D35" stroke-width="1.5" stroke-linejoin="round"/><path id="n88" d="M 407 922 L 412 925 L 412 930" fill="none" stroke="#303D35" stroke-width="1.5" stroke-linejoin="round"/><text id="n89-line-1" x="404.0" y="942.5" text-anchor="middle" dominant-baseline="central" font-family="Noto Sans SC" font-size="12" font-weight="400" fill="#657065">Share</text><rect id="n90-outline" x="204" y="955" width="38" height="3" rx="2" fill="#303D35" stroke="none" stroke-width="0"/><rect id="n91-outline" x="220" y="966" width="110" height="4" rx="2" fill="#303D35" stroke="none" stroke-width="0"/><rect id="n28001-outline" x="152" y="233" width="246" height="57" rx="30" fill="#F5F5F1" stroke="none" stroke-width="0"/><rect id="n28002-outline" x="152" y="230" width="246" height="57" rx="30" fill="white" stroke="#DCE1D8" stroke-width="1"/><rect id="n28003-outline" x="185" y="243" width="11" height="11" rx="6" fill="none" stroke="#859086" stroke-width="1"/><rect id="n28004-outline" x="191" y="243" width="11" height="11" rx="6" fill="none" stroke="#859086" stroke-width="1"/><text id="n28005-line-1" x="211" y="248.5" text-anchor="start" dominant-baseline="central" font-family="Noto Sans SC" font-size="12" font-weight="400" fill="#303D35">A moment together</text><text id="n28006-line-1" x="275.0" y="270.5" text-anchor="middle" dominant-baseline="central" font-family="Noto Sans SC" font-size="11" font-weight="400" fill="#657065">Breathwork · In 20 min</text><rect id="n28007-outline" x="217" y="843" width="4" height="4" rx="2" fill="#303D35" stroke="none" stroke-width="0"/></g></svg>